<svg width="90" height="92" viewBox="0 0 90 92" fill="none" xmlns="http://www.w3.org/2000/svg">
<path d="M87.5 46C87.5 70.0765 68.4206 89.5 45 89.5C21.5794 89.5 2.5 70.0765 2.5 46C2.5 21.9235 21.5794 2.5 45 2.5C68.4206 2.5 87.5 21.9235 87.5 46Z" stroke="white" stroke-width="5"/>
<path d="M56.9167 25H50.6667C47.904 25 45.2545 26.0975 43.301 28.051C41.3475 30.0045 40.25 32.654 40.25 35.4167V41.6667H34V50H40.25V66.6667H48.5833V50H54.8333L56.9167 41.6667H48.5833V35.4167C48.5833 34.8641 48.8028 34.3342 49.1935 33.9435C49.5842 33.5528 50.1141 33.3333 50.6667 33.3333H56.9167V25Z" stroke="white" stroke-width="5" stroke-linecap="round" stroke-linejoin="round"/>
</svg>
