<svg width="92" height="92" viewBox="0 0 92 92" fill="none" xmlns="http://www.w3.org/2000/svg">
<circle cx="46" cy="46" r="43.5" stroke="white" stroke-width="5"/>
<path d="M64.75 38.8335C64.75 53.4168 46 65.9168 46 65.9168C46 65.9168 27.25 53.4168 27.25 38.8335C27.25 33.8607 29.2254 29.0916 32.7417 25.5752C36.2581 22.0589 41.0272 20.0835 46 20.0835C50.9728 20.0835 55.7419 22.0589 59.2582 25.5752C62.7746 29.0916 64.75 33.8607 64.75 38.8335Z" stroke="white" stroke-width="5" stroke-linecap="round" stroke-linejoin="round"/>
<path d="M46 45.0835C49.4518 45.0835 52.25 42.2853 52.25 38.8335C52.25 35.3817 49.4518 32.5835 46 32.5835C42.5482 32.5835 39.75 35.3817 39.75 38.8335C39.75 42.2853 42.5482 45.0835 46 45.0835Z" stroke="white" stroke-width="3" stroke-linecap="round" stroke-linejoin="round"/>
</svg>
