<svg width="92" height="92" viewBox="0 0 92 92" fill="none" xmlns="http://www.w3.org/2000/svg">
<circle cx="46" cy="46" r="43.5" stroke="white" stroke-width="5"/>
<path d="M64.5 44.7084C64.5072 47.4581 63.8647 50.1707 62.625 52.6251C61.1551 55.5662 58.8953 58.04 56.0989 59.7694C53.3024 61.4988 50.0797 62.4155 46.7917 62.4167C44.0419 62.4239 41.3294 61.7815 38.875 60.5417L27 64.5001L30.9583 52.6251C29.7186 50.1707 29.0762 47.4581 29.0833 44.7084C29.0846 41.4204 30.0013 38.1977 31.7307 35.4012C33.4601 32.6047 35.9339 30.345 38.875 28.8751C41.3294 27.6353 44.0419 26.9929 46.7917 27.0001H47.8333C52.1757 27.2396 56.2772 29.0725 59.3524 32.1477C62.4276 35.2229 64.2604 39.3243 64.5 43.6667V44.7084Z" stroke="white" stroke-width="5" stroke-linecap="round" stroke-linejoin="round"/>
</svg>
