<svg width="92" height="92" viewBox="0 0 92 92" fill="none" xmlns="http://www.w3.org/2000/svg">
<circle cx="46" cy="46" r="43.5" stroke="white" stroke-width="5"/>
<path d="M66.4336 56.0835V62.3335C66.4359 62.9137 66.3171 63.4881 66.0846 64.0197C65.8522 64.5513 65.5113 65.0285 65.0837 65.4208C64.6562 65.813 64.1514 66.1116 63.6018 66.2975C63.0522 66.4834 62.4698 66.5524 61.8919 66.5002C55.4811 65.8036 49.3232 63.613 43.9127 60.1044C38.8791 56.9058 34.6114 52.6381 31.4127 47.6044C27.8919 42.1694 25.7007 35.9814 25.0169 29.5419C24.9648 28.9658 25.0333 28.3851 25.218 27.8369C25.4026 27.2887 25.6993 26.785 26.0893 26.3577C26.4793 25.9305 26.954 25.5892 27.4831 25.3555C28.0123 25.1217 28.5843 25.0007 29.1627 25.0002H35.4127C36.4238 24.9903 37.404 25.3483 38.1706 26.0076C38.9372 26.6668 39.4379 27.5824 39.5794 28.5835C39.8432 30.5837 40.3324 32.5475 41.0377 34.4377C41.318 35.1834 41.3787 35.9938 41.2125 36.7729C41.0464 37.552 40.6604 38.2671 40.1002 38.8335L37.4544 41.4794C40.4202 46.6951 44.7387 51.0136 49.9544 53.9794L52.6002 51.3335C53.1667 50.7734 53.8818 50.3874 54.6609 50.2212C55.44 50.0551 56.2504 50.1157 56.9961 50.396C58.8862 51.1013 60.8501 51.5906 62.8502 51.8544C63.8623 51.9971 64.7865 52.5069 65.4472 53.2866C66.1079 54.0664 66.4589 55.0618 66.4336 56.0835Z" stroke="white" stroke-width="5" stroke-linecap="round" stroke-linejoin="round"/>
</svg>
