<svg width="92" height="92" viewBox="0 0 92 92" fill="none" xmlns="http://www.w3.org/2000/svg">
<circle cx="46" cy="46" r="43.5" stroke="white" stroke-width="5"/>
<path d="M69.8333 27.0209C67.8383 28.4282 65.6294 29.5045 63.2917 30.2084C62.037 28.7658 60.3694 27.7432 58.5147 27.2791C56.6599 26.815 54.7073 26.9318 52.921 27.6136C51.1347 28.2953 49.6009 29.5093 48.527 31.0912C47.4532 32.6731 46.891 34.5467 46.9167 36.4585V38.5418C43.2555 38.6367 39.6277 37.8247 36.3563 36.1781C33.0849 34.5315 30.2715 32.1014 28.1667 29.1043C28.1667 29.1043 19.8333 47.8543 38.5833 56.1876C34.2928 59.1 29.1816 60.5604 24 60.3543C42.75 70.771 65.6667 60.3543 65.6667 36.3959C65.6647 35.8156 65.609 35.2368 65.5 34.6668C67.6263 32.5699 69.1267 29.9224 69.8333 27.0209Z" stroke="white" stroke-width="5" stroke-linecap="round" stroke-linejoin="round"/>
</svg>
