<svg width="92" height="92" viewBox="0 0 92 92" fill="none" xmlns="http://www.w3.org/2000/svg">
<circle cx="46" cy="46" r="43.5" stroke="white" stroke-width="5"/>
<path d="M41.3125 55.2915L53.2917 48.479L41.3125 41.6665V55.2915Z" stroke="white" stroke-width="3" stroke-linecap="round" stroke-linejoin="round"/>
<path d="M67.9582 37.3752C67.7107 36.3864 67.2067 35.4805 66.4971 34.7489C65.7874 34.0173 64.8973 33.486 63.9166 33.2085C60.3332 32.3335 45.9999 32.3335 45.9999 32.3335C45.9999 32.3335 31.6666 32.3335 28.0832 33.2918C27.1025 33.5693 26.2123 34.1007 25.5027 34.8323C24.793 35.5639 24.289 36.4698 24.0416 37.4585C23.3858 41.0951 23.065 44.7841 23.0832 48.4793C23.0598 52.2023 23.3807 55.9195 24.0416 59.5835C24.3144 60.5415 24.8297 61.413 25.5377 62.1137C26.2457 62.8144 27.1224 63.3206 28.0832 63.5835C31.6666 64.5418 45.9999 64.5418 45.9999 64.5418C45.9999 64.5418 60.3332 64.5418 63.9166 63.5835C64.8973 63.306 65.7874 62.7747 66.4971 62.0431C67.2067 61.3115 67.7107 60.4056 67.9582 59.4168C68.609 55.8076 68.9297 52.1467 68.9166 48.4793C68.9399 44.7563 68.6191 41.0391 67.9582 37.3752Z" stroke="white" stroke-width="5" stroke-linecap="round" stroke-linejoin="round"/>
</svg>
